<svg width="1016" height="828" viewBox="0 0 1016 828" fill="none" xmlns="http://www.w3.org/2000/svg">
<path d="M19 816H605.622C642.5 816 677.5 784.335 677.5 734.58C677.5 684.825 650 650.571 564.43 650.571H416.307C397.5 650.571 343 640 343 573C343 509.5 405 500.374 416.307 500.374H906.515C954.78 500.374 1005 480.465 1005 421.862C1005 348.61 926.487 343.736 844.519 343.736C778.946 343.736 790.222 343.736 769.557 343.736H698C669 343.736 620 324.6 620 273C620 221.4 665 193.5 698 193.5H739.5H797C859.5 193.5 903 150.5 903 98C903 20.5 813 11.8333 797 11H520" stroke="#ACACAC" stroke-width="2" stroke-dasharray="8 8"/>
<circle cx="11" cy="817" r="11" fill="#DB0A0A"/>
<circle cx="329" cy="817" r="11" fill="#DB0A0A"/>
<circle cx="677" cy="731" r="11" fill="#DB0A0A"/>
<circle cx="398" cy="503" r="11" fill="#DB0A0A"/>
<circle cx="1005" cy="423" r="11" fill="#DB0A0A"/>
<circle cx="899" cy="122" r="11" fill="#DB0A0A"/>
<circle cx="522" cy="11" r="11" fill="#DB0A0A"/>
</svg>
