<svg width="987" height="807" viewBox="0 0 987 807" fill="none" xmlns="http://www.w3.org/2000/svg">
<path d="M0 806H586.622C623.5 806 658.5 774.335 658.5 724.58C658.5 674.825 631 640.571 545.43 640.571H397.307C378.5 640.571 324 630 324 563C324 499.5 386 490.374 397.307 490.374H887.515C935.78 490.374 986 470.465 986 411.862C986 338.61 907.487 333.736 825.519 333.736C759.946 333.736 771.222 333.736 750.557 333.736H679C650 333.736 601 314.6 601 263C601 211.4 646 183.5 679 183.5H720.5H778C840.5 183.5 884 140.5 884 88C884 10.5 794 1.83333 778 1H501" stroke="#ACACAC" stroke-width="2" stroke-dasharray="8 8"/>
</svg>
